<svg width="18" height="18" viewBox="0 0 18 18" fill="none" xmlns="http://www.w3.org/2000/svg">
<path d="M18 9C18 13.9706 13.9706 18 9 18C4.02944 18 0 13.9706 0 9C0 4.02944 4.02944 0 9 0C13.9706 0 18 4.02944 18 9Z" fill="#FFDF6F"/>
<path d="M15.8401 9.00016C15.8401 12.7778 12.7778 15.8402 9.00013 15.8402C5.2225 15.8402 2.16013 12.7778 2.16013 9.00016C2.16013 5.22253 5.2225 2.16016 9.00013 2.16016C12.7778 2.16016 15.8401 5.22253 15.8401 9.00016Z" fill="#FFB10D"/>
<path d="M6.47996 5.76001V12.24H8.38464V10.2909H9.50131C11.1551 10.2909 12.24 9.41767 12.24 8.03813C12.24 6.67126 11.1798 5.76001 9.56845 5.76001H6.47996ZM8.38464 8.96204V7.12689H9.12673C9.84054 7.12689 10.2575 7.4686 10.2575 8.03813C10.2575 8.6045 9.84054 8.96204 9.12673 8.96204H8.38464Z" fill="#FFDF6F"/>
</svg>
