<svg width="1000" height="40" viewBox="0 0 1000 40" fill="none" xmlns="http://www.w3.org/2000/svg">
<path d="M0 0H1000V40H0V0Z" fill="#FF8B37"/>
<path d="M382.171 21.654C382.567 21.654 382.933 21.75 383.269 21.942C383.605 22.134 383.821 22.44 383.917 22.86H391.963C392.047 22.404 392.257 22.092 392.593 21.924C392.929 21.744 393.313 21.654 393.745 21.654C393.973 21.654 394.195 21.684 394.411 21.744C394.627 21.792 394.819 21.876 394.987 21.996C395.167 22.116 395.305 22.278 395.401 22.482C395.509 22.674 395.563 22.914 395.563 23.202V28.368H382.909C382.369 28.368 381.931 28.32 381.595 28.224C381.259 28.14 380.995 27.99 380.803 27.774C380.623 27.57 380.497 27.294 380.425 26.946C380.365 26.598 380.335 26.16 380.335 25.632V23.202C380.335 22.914 380.383 22.674 380.479 22.482C380.587 22.278 380.725 22.116 380.893 21.996C381.061 21.876 381.253 21.792 381.469 21.744C381.697 21.684 381.931 21.654 382.171 21.654ZM389.641 13.122C389.641 13.158 389.635 13.194 389.623 13.23C389.623 13.254 389.623 13.278 389.623 13.302C390.319 13.266 391.009 13.326 391.693 13.482C392.377 13.626 393.001 13.884 393.565 14.256C394.141 14.616 394.633 15.102 395.041 15.714C395.449 16.314 395.737 17.052 395.905 17.928H392.251C392.107 17.532 391.891 17.19 391.603 16.902C391.327 16.614 391.003 16.392 390.631 16.236C390.271 16.068 389.869 15.966 389.425 15.93C388.981 15.894 388.525 15.918 388.057 16.002C387.661 16.35 387.205 16.656 386.689 16.92C386.185 17.184 385.651 17.4 385.087 17.568C384.523 17.736 383.941 17.856 383.341 17.928C382.741 18 382.147 18.012 381.559 17.964C381.019 17.928 380.617 17.772 380.353 17.496C380.101 17.208 379.981 16.884 379.993 16.524C379.993 16.344 380.029 16.164 380.101 15.984C380.173 15.804 380.275 15.648 380.407 15.516C380.551 15.372 380.725 15.264 380.929 15.192C381.133 15.108 381.373 15.066 381.649 15.066C382.081 15.078 382.531 15.03 382.999 14.922C383.479 14.814 383.917 14.658 384.313 14.454C384.721 14.25 385.075 14.004 385.375 13.716C385.675 13.428 385.873 13.104 385.969 12.744C386.113 12.192 386.383 11.802 386.779 11.574C387.187 11.346 387.637 11.262 388.129 11.322C388.609 11.382 388.987 11.55 389.263 11.826C389.551 12.102 389.677 12.534 389.641 13.122ZM394.969 18.504C395.485 18.504 395.845 18.642 396.049 18.918C396.265 19.182 396.373 19.482 396.373 19.818C396.373 20.166 396.265 20.472 396.049 20.736C395.833 21 395.473 21.132 394.969 21.132H380.929C380.425 21.132 380.065 21 379.849 20.736C379.633 20.472 379.525 20.166 379.525 19.818C379.525 19.482 379.627 19.182 379.831 18.918C380.047 18.642 380.413 18.504 380.929 18.504H394.969ZM391.945 26.028V25.074H383.953V25.47C383.953 25.65 383.989 25.788 384.061 25.884C384.145 25.98 384.295 26.028 384.511 26.028H391.945ZM409.783 13.248C409.783 12.66 409.957 12.216 410.305 11.916C410.653 11.616 411.067 11.466 411.547 11.466C412.015 11.466 412.423 11.622 412.771 11.934C413.131 12.234 413.311 12.672 413.311 13.248V15.966H413.869C414.145 15.966 414.373 16.014 414.553 16.11C414.733 16.206 414.877 16.332 414.985 16.488C415.093 16.632 415.171 16.8 415.219 16.992C415.267 17.172 415.291 17.352 415.291 17.532C415.291 17.712 415.267 17.898 415.219 18.09C415.171 18.27 415.093 18.438 414.985 18.594C414.877 18.738 414.727 18.858 414.535 18.954C414.355 19.05 414.133 19.098 413.869 19.098H413.311V24.192H409.783V13.248ZM401.395 28.368C400.891 28.368 400.471 28.32 400.135 28.224C399.811 28.128 399.553 27.978 399.361 27.774C399.169 27.57 399.031 27.3 398.947 26.964C398.875 26.628 398.839 26.22 398.839 25.74V24.606C398.839 23.994 399.019 23.55 399.379 23.274C399.751 22.998 400.189 22.86 400.693 22.86C401.197 22.86 401.623 22.998 401.971 23.274C402.319 23.55 402.493 23.994 402.493 24.606V25.164C402.493 25.368 402.523 25.494 402.583 25.542C402.643 25.59 402.775 25.614 402.979 25.614H412.411C412.963 25.614 413.353 25.752 413.581 26.028C413.809 26.304 413.923 26.622 413.923 26.982C413.923 27.354 413.803 27.678 413.563 27.954C413.335 28.23 412.951 28.368 412.411 28.368H401.395ZM399.829 19.35V17.496C399.829 16.908 399.979 16.5 400.279 16.272C400.579 16.032 400.975 15.912 401.467 15.912C401.947 15.912 402.337 16.032 402.637 16.272C402.937 16.512 403.087 16.92 403.087 17.496V19.35H407.677C408.229 19.35 408.619 19.488 408.847 19.764C409.075 20.028 409.189 20.346 409.189 20.718C409.189 21.102 409.069 21.432 408.829 21.708C408.601 21.972 408.217 22.104 407.677 22.104H398.929C398.389 22.104 397.999 21.972 397.759 21.708C397.519 21.432 397.399 21.102 397.399 20.718C397.399 20.346 397.513 20.028 397.741 19.764C397.981 19.488 398.377 19.35 398.929 19.35H399.829ZM399.487 14.76C398.923 14.76 398.515 14.622 398.263 14.346C398.011 14.07 397.885 13.728 397.885 13.32C397.885 12.948 398.005 12.624 398.245 12.348C398.497 12.072 398.911 11.934 399.487 11.934H406.039C406.879 11.934 407.473 12.102 407.821 12.438C408.169 12.774 408.343 13.26 408.343 13.896V15.462C408.343 16.122 408.301 16.734 408.217 17.298C408.133 17.862 408.019 18.318 407.875 18.666H404.545C404.689 18.318 404.791 17.88 404.851 17.352C404.923 16.812 404.959 16.296 404.959 15.804V15.12C404.959 14.976 404.929 14.88 404.869 14.832C404.809 14.784 404.701 14.76 404.545 14.76H399.487ZM419.125 28.368C418.585 28.368 418.147 28.32 417.811 28.224C417.475 28.14 417.211 27.99 417.019 27.774C416.839 27.57 416.713 27.294 416.641 26.946C416.581 26.598 416.551 26.16 416.551 25.632V24.156C416.551 23.64 416.581 23.208 416.641 22.86C416.713 22.5 416.839 22.218 417.019 22.014C417.211 21.798 417.475 21.648 417.811 21.564C418.147 21.468 418.585 21.42 419.125 21.42H428.755C429.295 21.42 429.733 21.468 430.069 21.564C430.405 21.648 430.663 21.798 430.843 22.014C431.035 22.218 431.161 22.5 431.221 22.86C431.293 23.208 431.329 23.64 431.329 24.156V28.368H419.125ZM416.245 17.964C417.181 17.7 417.877 17.208 418.333 16.488C418.789 15.756 419.017 14.736 419.017 13.428V13.32C419.017 13.032 419.065 12.786 419.161 12.582C419.269 12.366 419.407 12.192 419.575 12.06C419.755 11.916 419.953 11.814 420.169 11.754C420.397 11.682 420.631 11.646 420.871 11.646C421.339 11.658 421.741 11.808 422.077 12.096C422.425 12.372 422.599 12.78 422.599 13.32V13.428C422.599 13.716 422.587 13.992 422.563 14.256C422.551 14.52 422.521 14.778 422.473 15.03C423.097 15.114 423.667 15.282 424.183 15.534C424.699 15.786 425.131 16.14 425.479 16.596C425.839 17.04 426.109 17.586 426.289 18.234C426.481 18.882 426.559 19.644 426.523 20.52H423.049C423.109 19.74 423.013 19.122 422.761 18.666C422.509 18.198 422.113 17.904 421.573 17.784C421.057 18.708 420.415 19.428 419.647 19.944C418.879 20.448 418.069 20.748 417.217 20.844C416.749 20.892 416.347 20.808 416.011 20.592C415.675 20.364 415.471 20.094 415.399 19.782C415.279 19.374 415.297 18.996 415.453 18.648C415.621 18.288 415.885 18.06 416.245 17.964ZM427.657 13.248C427.657 12.66 427.831 12.216 428.179 11.916C428.539 11.616 428.959 11.466 429.439 11.466C429.907 11.466 430.321 11.622 430.681 11.934C431.041 12.234 431.221 12.672 431.221 13.248V14.58H431.779C432.055 14.58 432.283 14.628 432.463 14.724C432.643 14.82 432.787 14.94 432.895 15.084C433.003 15.228 433.081 15.396 433.129 15.588C433.177 15.768 433.201 15.948 433.201 16.128C433.201 16.308 433.177 16.494 433.129 16.686C433.081 16.866 433.003 17.034 432.895 17.19C432.787 17.334 432.637 17.454 432.445 17.55C432.265 17.634 432.043 17.676 431.779 17.676H431.221V20.772H427.657V13.248ZM420.097 25.344C420.097 25.56 420.121 25.698 420.169 25.758C420.229 25.806 420.349 25.83 420.529 25.83H427.783V24.408C427.783 24.204 427.753 24.078 427.693 24.03C427.633 23.97 427.513 23.94 427.333 23.94H420.529C420.349 23.94 420.229 23.97 420.169 24.03C420.121 24.078 420.097 24.204 420.097 24.408V25.344ZM439.447 25.182C439.747 25.05 440.023 24.9 440.275 24.732C440.539 24.564 440.761 24.348 440.941 24.084C441.133 23.808 441.277 23.46 441.373 23.04C441.481 22.608 441.535 22.068 441.535 21.42V15.426C441.535 15.27 441.505 15.168 441.445 15.12C441.397 15.072 441.301 15.048 441.157 15.048H439.339V21.204C439.339 22.236 439.189 23.106 438.889 23.814C438.589 24.51 438.211 25.08 437.755 25.524C437.299 25.968 436.801 26.298 436.261 26.514C435.733 26.73 435.241 26.862 434.785 26.91C434.377 26.958 434.035 26.886 433.759 26.694C433.483 26.502 433.315 26.244 433.255 25.92C433.183 25.536 433.207 25.188 433.327 24.876C433.459 24.552 433.747 24.294 434.191 24.102C434.407 24.006 434.623 23.904 434.839 23.796C435.067 23.676 435.271 23.514 435.451 23.31C435.631 23.106 435.775 22.836 435.883 22.5C436.003 22.164 436.063 21.726 436.063 21.186V15.48C436.063 15.324 436.033 15.222 435.973 15.174C435.925 15.126 435.829 15.102 435.685 15.102H434.641C434.389 15.102 434.173 15.06 433.993 14.976C433.813 14.892 433.663 14.784 433.543 14.652C433.435 14.508 433.351 14.346 433.291 14.166C433.243 13.986 433.219 13.806 433.219 13.626C433.219 13.446 433.243 13.272 433.291 13.104C433.339 12.924 433.417 12.762 433.525 12.618C433.645 12.474 433.795 12.36 433.975 12.276C434.155 12.192 434.377 12.15 434.641 12.15H442.489C442.993 12.15 443.401 12.186 443.713 12.258C444.037 12.33 444.283 12.45 444.451 12.618C444.619 12.786 444.733 13.014 444.793 13.302C444.853 13.578 444.883 13.932 444.883 14.364V21.438C444.883 22.494 444.751 23.412 444.487 24.192C444.235 24.96 443.893 25.608 443.461 26.136C443.029 26.664 442.537 27.078 441.985 27.378C441.433 27.678 440.863 27.882 440.275 27.99C439.903 28.062 439.555 28.02 439.231 27.864C438.907 27.708 438.697 27.474 438.601 27.162C438.469 26.742 438.475 26.352 438.619 25.992C438.775 25.632 439.051 25.362 439.447 25.182ZM446.323 28.368V13.248C446.323 12.66 446.497 12.216 446.845 11.916C447.205 11.616 447.625 11.466 448.105 11.466C448.585 11.466 448.999 11.616 449.347 11.916C449.707 12.216 449.887 12.66 449.887 13.248V28.368H446.323Z" fill="white"/>
<path d="M451.616 16.2C451.616 15.408 451.748 14.73 452.012 14.166C452.276 13.602 452.642 13.14 453.11 12.78C453.578 12.42 454.124 12.156 454.748 11.988C455.384 11.808 456.074 11.718 456.818 11.718C457.55 11.718 458.234 11.808 458.87 11.988C459.506 12.156 460.052 12.42 460.508 12.78C460.976 13.14 461.342 13.602 461.606 14.166C461.87 14.73 462.002 15.408 462.002 16.2V17.694C462.002 18.93 461.69 19.902 461.066 20.61C460.442 21.306 459.626 21.768 458.618 21.996V24.84H461.282C461.834 24.84 462.224 24.99 462.452 25.29C462.68 25.578 462.794 25.908 462.794 26.28C462.794 26.664 462.674 27 462.434 27.288C462.206 27.588 461.822 27.738 461.282 27.738H452.714C452.174 27.738 451.784 27.588 451.544 27.288C451.304 27 451.184 26.664 451.184 26.28C451.184 25.908 451.298 25.578 451.526 25.29C451.766 24.99 452.162 24.84 452.714 24.84H455.126V22.014C454.598 21.906 454.118 21.738 453.686 21.51C453.266 21.282 452.9 20.994 452.588 20.646C452.276 20.286 452.036 19.866 451.868 19.386C451.7 18.894 451.616 18.33 451.616 17.694V16.2ZM463.442 13.212C463.442 12.636 463.622 12.204 463.982 11.916C464.342 11.616 464.756 11.466 465.224 11.466C465.452 11.466 465.674 11.508 465.89 11.592C466.106 11.664 466.292 11.772 466.448 11.916C466.616 12.06 466.748 12.24 466.844 12.456C466.952 12.672 467.006 12.924 467.006 13.212V17.766H467.6C467.876 17.766 468.104 17.814 468.284 17.91C468.464 18.006 468.608 18.132 468.716 18.288C468.824 18.432 468.902 18.6 468.95 18.792C468.998 18.972 469.022 19.152 469.022 19.332C469.022 19.512 468.998 19.698 468.95 19.89C468.902 20.07 468.824 20.238 468.716 20.394C468.608 20.538 468.458 20.658 468.266 20.754C468.086 20.85 467.864 20.898 467.6 20.898H467.006V28.368H463.442V13.212ZM455.144 17.838C455.144 18.138 455.192 18.384 455.288 18.576C455.384 18.768 455.51 18.924 455.666 19.044C455.822 19.152 455.996 19.23 456.188 19.278C456.392 19.326 456.602 19.35 456.818 19.35C457.034 19.35 457.238 19.326 457.43 19.278C457.634 19.23 457.814 19.152 457.97 19.044C458.126 18.924 458.252 18.768 458.348 18.576C458.444 18.384 458.492 18.138 458.492 17.838V16.056C458.492 15.768 458.444 15.528 458.348 15.336C458.252 15.132 458.126 14.976 457.97 14.868C457.814 14.748 457.634 14.664 457.43 14.616C457.238 14.568 457.034 14.544 456.818 14.544C456.602 14.544 456.392 14.568 456.188 14.616C455.996 14.664 455.822 14.748 455.666 14.868C455.51 14.976 455.384 15.132 455.288 15.336C455.192 15.528 455.144 15.768 455.144 16.056V17.838ZM477.81 28.368C477.27 28.368 476.832 28.32 476.496 28.224C476.16 28.14 475.896 27.99 475.704 27.774C475.524 27.57 475.398 27.294 475.326 26.946C475.266 26.598 475.236 26.16 475.236 25.632V24.66C475.236 24.144 475.266 23.712 475.326 23.364C475.398 23.004 475.524 22.722 475.704 22.518C475.896 22.302 476.16 22.152 476.496 22.068C476.832 21.972 477.27 21.924 477.81 21.924H487.44C487.98 21.924 488.418 21.972 488.754 22.068C489.09 22.152 489.348 22.302 489.528 22.518C489.72 22.722 489.846 23.004 489.906 23.364C489.978 23.712 490.014 24.144 490.014 24.66V28.368H477.81ZM479.52 21.312C478.884 21.312 478.278 21.24 477.702 21.096C477.126 20.952 476.622 20.73 476.19 20.43C475.758 20.13 475.41 19.746 475.146 19.278C474.894 18.798 474.768 18.234 474.768 17.586V16.596C474.768 16.392 474.798 16.194 474.858 16.002C474.918 15.798 474.996 15.612 475.092 15.444C474.66 15.444 474.33 15.318 474.102 15.066C473.886 14.814 473.778 14.526 473.778 14.202C473.778 13.878 473.886 13.578 474.102 13.302C474.33 13.026 474.666 12.888 475.11 12.888H477.72C477.732 12.384 477.9 11.994 478.224 11.718C478.548 11.43 478.98 11.286 479.52 11.286C480.048 11.286 480.474 11.43 480.798 11.718C481.134 11.994 481.314 12.384 481.338 12.888H483.93C484.386 12.888 484.716 13.026 484.92 13.302C485.136 13.578 485.244 13.878 485.244 14.202C485.244 14.526 485.142 14.814 484.938 15.066C484.734 15.318 484.404 15.444 483.948 15.444H483.93C484.158 15.804 484.272 16.188 484.272 16.596V17.586C484.272 18.234 484.14 18.798 483.876 19.278C483.624 19.746 483.282 20.13 482.85 20.43C482.418 20.73 481.914 20.952 481.338 21.096C480.762 21.24 480.156 21.312 479.52 21.312ZM486.342 13.248C486.342 12.66 486.516 12.216 486.864 11.916C487.224 11.616 487.644 11.466 488.124 11.466C488.592 11.466 489.006 11.622 489.366 11.934C489.726 12.234 489.906 12.672 489.906 13.248V14.778H490.464C490.74 14.778 490.968 14.826 491.148 14.922C491.328 15.018 491.472 15.138 491.58 15.282C491.688 15.426 491.766 15.594 491.814 15.786C491.862 15.966 491.886 16.146 491.886 16.326C491.886 16.506 491.862 16.692 491.814 16.884C491.766 17.064 491.688 17.232 491.58 17.388C491.472 17.532 491.322 17.652 491.13 17.748C490.95 17.832 490.728 17.874 490.464 17.874H489.906V21.294H486.342V13.248ZM478.782 25.344C478.782 25.524 478.806 25.662 478.854 25.758C478.914 25.854 479.034 25.902 479.214 25.902H486.468V24.912C486.468 24.744 486.438 24.612 486.378 24.516C486.318 24.42 486.198 24.372 486.018 24.372H479.214C479.034 24.372 478.914 24.42 478.854 24.516C478.806 24.612 478.782 24.744 478.782 24.912V25.344ZM479.52 18.774C479.892 18.774 480.228 18.666 480.528 18.45C480.84 18.234 480.996 17.91 480.996 17.478V16.596C480.996 16.164 480.84 15.84 480.528 15.624C480.228 15.408 479.892 15.3 479.52 15.3C479.148 15.3 478.806 15.408 478.494 15.624C478.194 15.84 478.044 16.164 478.044 16.596V17.478C478.044 17.91 478.194 18.234 478.494 18.45C478.806 18.666 479.148 18.774 479.52 18.774ZM496.602 25.362C496.83 25.242 497.028 25.104 497.196 24.948C497.364 24.792 497.502 24.594 497.61 24.354C497.73 24.102 497.814 23.802 497.862 23.454C497.922 23.094 497.952 22.65 497.952 22.122V15.12C497.952 15.036 497.94 14.988 497.916 14.976C497.904 14.952 497.886 14.94 497.862 14.94H496.62V21.618C496.62 22.59 496.506 23.4 496.278 24.048C496.05 24.684 495.762 25.206 495.414 25.614C495.066 26.01 494.688 26.304 494.28 26.496C493.872 26.676 493.494 26.79 493.146 26.838C492.762 26.898 492.444 26.82 492.192 26.604C491.952 26.388 491.808 26.136 491.76 25.848C491.736 25.668 491.724 25.5 491.724 25.344C491.724 25.188 491.754 25.044 491.814 24.912C491.874 24.768 491.964 24.636 492.084 24.516C492.216 24.384 492.396 24.264 492.624 24.156C492.768 24.084 492.906 23.994 493.038 23.886C493.182 23.766 493.308 23.604 493.416 23.4C493.524 23.196 493.608 22.944 493.668 22.644C493.74 22.344 493.776 21.966 493.776 21.51V15.156C493.776 15.072 493.764 15.024 493.74 15.012C493.728 14.988 493.71 14.976 493.686 14.976H493.29C493.05 14.976 492.846 14.94 492.678 14.868C492.522 14.784 492.39 14.676 492.282 14.544C492.186 14.412 492.114 14.262 492.066 14.094C492.018 13.926 491.994 13.752 491.994 13.572C491.994 13.392 492.012 13.218 492.048 13.05C492.096 12.882 492.168 12.732 492.264 12.6C492.372 12.468 492.51 12.36 492.678 12.276C492.846 12.192 493.05 12.15 493.29 12.15H498.618C499.098 12.15 499.482 12.186 499.77 12.258C500.058 12.318 500.28 12.426 500.436 12.582C500.592 12.726 500.694 12.93 500.742 13.194C500.802 13.458 500.832 13.788 500.832 14.184V18.126H501.714V12.96C501.714 12.456 501.864 12.084 502.164 11.844C502.464 11.592 502.818 11.466 503.226 11.466C503.622 11.466 503.976 11.592 504.288 11.844C504.6 12.096 504.756 12.468 504.756 12.96V28.368H501.714V21.042H500.832V22.23C500.832 23.214 500.748 24.048 500.58 24.732C500.424 25.416 500.202 25.986 499.914 26.442C499.626 26.886 499.284 27.228 498.888 27.468C498.504 27.72 498.084 27.894 497.628 27.99C497.244 28.074 496.884 28.044 496.548 27.9C496.224 27.756 496.014 27.528 495.918 27.216C495.798 26.844 495.792 26.49 495.9 26.154C496.008 25.806 496.242 25.542 496.602 25.362ZM505.53 12.96C505.53 12.456 505.686 12.084 505.998 11.844C506.31 11.592 506.67 11.466 507.078 11.466C507.474 11.466 507.834 11.592 508.158 11.844C508.482 12.096 508.644 12.468 508.644 12.96V28.368H505.53V12.96ZM517.451 21.654C517.847 21.654 518.213 21.75 518.549 21.942C518.885 22.134 519.101 22.44 519.197 22.86H527.243C527.327 22.404 527.537 22.092 527.873 21.924C528.209 21.744 528.593 21.654 529.025 21.654C529.253 21.654 529.475 21.684 529.691 21.744C529.907 21.792 530.099 21.876 530.267 21.996C530.447 22.116 530.585 22.278 530.681 22.482C530.789 22.674 530.843 22.914 530.843 23.202V28.368H518.189C517.649 28.368 517.211 28.32 516.875 28.224C516.539 28.14 516.275 27.99 516.083 27.774C515.903 27.57 515.777 27.294 515.705 26.946C515.645 26.598 515.615 26.16 515.615 25.632V23.202C515.615 22.914 515.663 22.674 515.759 22.482C515.867 22.278 516.005 22.116 516.173 21.996C516.341 21.876 516.533 21.792 516.749 21.744C516.977 21.684 517.211 21.654 517.451 21.654ZM524.921 13.122C524.921 13.158 524.915 13.194 524.903 13.23C524.903 13.254 524.903 13.278 524.903 13.302C525.599 13.266 526.289 13.326 526.973 13.482C527.657 13.626 528.281 13.884 528.845 14.256C529.421 14.616 529.913 15.102 530.321 15.714C530.729 16.314 531.017 17.052 531.185 17.928H527.531C527.387 17.532 527.171 17.19 526.883 16.902C526.607 16.614 526.283 16.392 525.911 16.236C525.551 16.068 525.149 15.966 524.705 15.93C524.261 15.894 523.805 15.918 523.337 16.002C522.941 16.35 522.485 16.656 521.969 16.92C521.465 17.184 520.931 17.4 520.367 17.568C519.803 17.736 519.221 17.856 518.621 17.928C518.021 18 517.427 18.012 516.839 17.964C516.299 17.928 515.897 17.772 515.633 17.496C515.381 17.208 515.261 16.884 515.273 16.524C515.273 16.344 515.309 16.164 515.381 15.984C515.453 15.804 515.555 15.648 515.687 15.516C515.831 15.372 516.005 15.264 516.209 15.192C516.413 15.108 516.653 15.066 516.929 15.066C517.361 15.078 517.811 15.03 518.279 14.922C518.759 14.814 519.197 14.658 519.593 14.454C520.001 14.25 520.355 14.004 520.655 13.716C520.955 13.428 521.153 13.104 521.249 12.744C521.393 12.192 521.663 11.802 522.059 11.574C522.467 11.346 522.917 11.262 523.409 11.322C523.889 11.382 524.267 11.55 524.543 11.826C524.831 12.102 524.957 12.534 524.921 13.122ZM530.249 18.504C530.765 18.504 531.125 18.642 531.329 18.918C531.545 19.182 531.653 19.482 531.653 19.818C531.653 20.166 531.545 20.472 531.329 20.736C531.113 21 530.753 21.132 530.249 21.132H516.209C515.705 21.132 515.345 21 515.129 20.736C514.913 20.472 514.805 20.166 514.805 19.818C514.805 19.482 514.907 19.182 515.111 18.918C515.327 18.642 515.693 18.504 516.209 18.504H530.249ZM527.225 26.028V25.074H519.233V25.47C519.233 25.65 519.269 25.788 519.341 25.884C519.425 25.98 519.575 26.028 519.791 26.028H527.225ZM545.063 13.248C545.063 12.66 545.237 12.216 545.585 11.916C545.933 11.616 546.347 11.466 546.827 11.466C547.295 11.466 547.703 11.622 548.051 11.934C548.411 12.234 548.591 12.672 548.591 13.248V15.966H549.149C549.425 15.966 549.653 16.014 549.833 16.11C550.013 16.206 550.157 16.332 550.265 16.488C550.373 16.632 550.451 16.8 550.499 16.992C550.547 17.172 550.571 17.352 550.571 17.532C550.571 17.712 550.547 17.898 550.499 18.09C550.451 18.27 550.373 18.438 550.265 18.594C550.157 18.738 550.007 18.858 549.815 18.954C549.635 19.05 549.413 19.098 549.149 19.098H548.591V24.192H545.063V13.248ZM536.675 28.368C536.171 28.368 535.751 28.32 535.415 28.224C535.091 28.128 534.833 27.978 534.641 27.774C534.449 27.57 534.311 27.3 534.227 26.964C534.155 26.628 534.119 26.22 534.119 25.74V24.606C534.119 23.994 534.299 23.55 534.659 23.274C535.031 22.998 535.469 22.86 535.973 22.86C536.477 22.86 536.903 22.998 537.251 23.274C537.599 23.55 537.773 23.994 537.773 24.606V25.164C537.773 25.368 537.803 25.494 537.863 25.542C537.923 25.59 538.055 25.614 538.259 25.614H547.691C548.243 25.614 548.633 25.752 548.861 26.028C549.089 26.304 549.203 26.622 549.203 26.982C549.203 27.354 549.083 27.678 548.843 27.954C548.615 28.23 548.231 28.368 547.691 28.368H536.675ZM535.109 19.35V17.496C535.109 16.908 535.259 16.5 535.559 16.272C535.859 16.032 536.255 15.912 536.747 15.912C537.227 15.912 537.617 16.032 537.917 16.272C538.217 16.512 538.367 16.92 538.367 17.496V19.35H542.957C543.509 19.35 543.899 19.488 544.127 19.764C544.355 20.028 544.469 20.346 544.469 20.718C544.469 21.102 544.349 21.432 544.109 21.708C543.881 21.972 543.497 22.104 542.957 22.104H534.209C533.669 22.104 533.279 21.972 533.039 21.708C532.799 21.432 532.679 21.102 532.679 20.718C532.679 20.346 532.793 20.028 533.021 19.764C533.261 19.488 533.657 19.35 534.209 19.35H535.109ZM534.767 14.76C534.203 14.76 533.795 14.622 533.543 14.346C533.291 14.07 533.165 13.728 533.165 13.32C533.165 12.948 533.285 12.624 533.525 12.348C533.777 12.072 534.191 11.934 534.767 11.934H541.319C542.159 11.934 542.753 12.102 543.101 12.438C543.449 12.774 543.623 13.26 543.623 13.896V15.462C543.623 16.122 543.581 16.734 543.497 17.298C543.413 17.862 543.299 18.318 543.155 18.666H539.825C539.969 18.318 540.071 17.88 540.131 17.352C540.203 16.812 540.239 16.296 540.239 15.804V15.12C540.239 14.976 540.209 14.88 540.149 14.832C540.089 14.784 539.981 14.76 539.825 14.76H534.767ZM566.897 14.544C566.897 14.952 566.831 15.336 566.699 15.696C566.567 16.044 566.363 16.35 566.087 16.614C565.823 16.866 565.487 17.07 565.079 17.226C564.671 17.37 564.185 17.442 563.621 17.442H554.477C553.913 17.442 553.427 17.37 553.019 17.226C552.611 17.07 552.269 16.866 551.993 16.614C551.729 16.35 551.531 16.044 551.399 15.696C551.267 15.336 551.201 14.952 551.201 14.544C551.201 14.136 551.267 13.758 551.399 13.41C551.531 13.062 551.729 12.756 551.993 12.492C552.269 12.228 552.611 12.024 553.019 11.88C553.427 11.724 553.913 11.646 554.477 11.646H563.621C564.185 11.646 564.671 11.724 565.079 11.88C565.487 12.024 565.823 12.228 566.087 12.492C566.363 12.756 566.567 13.062 566.699 13.41C566.831 13.758 566.897 14.136 566.897 14.544ZM563.207 14.544C563.207 14.376 563.153 14.244 563.045 14.148C562.949 14.04 562.763 13.986 562.487 13.986H555.611C555.335 13.986 555.143 14.04 555.035 14.148C554.939 14.244 554.891 14.376 554.891 14.544C554.891 14.712 554.939 14.85 555.035 14.958C555.143 15.054 555.335 15.102 555.611 15.102H562.487C562.763 15.102 562.949 15.054 563.045 14.958C563.153 14.85 563.207 14.712 563.207 14.544ZM553.397 28.368C553.013 28.368 552.677 28.302 552.389 28.17C552.101 28.05 551.861 27.882 551.669 27.666C551.489 27.462 551.351 27.222 551.255 26.946C551.171 26.67 551.129 26.376 551.129 26.064V26.01C551.129 25.374 551.309 24.858 551.669 24.462C552.029 24.066 552.605 23.868 553.397 23.868H563.027V23.526C563.027 23.334 562.901 23.238 562.649 23.238H552.335C551.999 23.238 551.741 23.136 551.561 22.932C551.393 22.716 551.309 22.488 551.309 22.248C551.309 22.008 551.387 21.78 551.543 21.564C551.711 21.348 551.975 21.24 552.335 21.24H564.719C565.487 21.24 566.015 21.384 566.303 21.672C566.591 21.948 566.735 22.362 566.735 22.914V25.722H555.341C555.209 25.722 555.119 25.752 555.071 25.812C555.023 25.86 554.999 25.932 554.999 26.028C554.999 26.124 555.023 26.202 555.071 26.262C555.119 26.322 555.209 26.352 555.341 26.352H566.267C566.615 26.352 566.861 26.46 567.005 26.676C567.161 26.88 567.239 27.108 567.239 27.36C567.239 27.576 567.167 27.798 567.023 28.026C566.879 28.254 566.627 28.368 566.267 28.368H553.397ZM566.177 18.09C566.657 18.09 566.993 18.216 567.185 18.468C567.377 18.72 567.473 19.002 567.473 19.314C567.473 19.638 567.371 19.926 567.167 20.178C566.975 20.418 566.645 20.538 566.177 20.538H551.921C551.453 20.538 551.117 20.418 550.913 20.178C550.721 19.926 550.625 19.638 550.625 19.314C550.625 19.002 550.721 18.72 550.913 18.468C551.105 18.216 551.441 18.09 551.921 18.09H566.177ZM576.586 21.024C576.046 21.024 575.608 20.982 575.272 20.898C574.936 20.802 574.672 20.652 574.48 20.448C574.3 20.232 574.174 19.95 574.102 19.602C574.042 19.254 574.012 18.816 574.012 18.288V14.778C574.012 14.262 574.042 13.83 574.102 13.482C574.174 13.122 574.3 12.84 574.48 12.636C574.672 12.42 574.936 12.27 575.272 12.186C575.608 12.09 576.046 12.042 576.586 12.042H581.446C581.986 12.042 582.424 12.09 582.76 12.186C583.096 12.27 583.354 12.42 583.534 12.636C583.726 12.84 583.852 13.122 583.912 13.482C583.984 13.83 584.02 14.262 584.02 14.778V21.024H576.586ZM577.45 28.368C576.946 28.368 576.526 28.32 576.19 28.224C575.866 28.128 575.608 27.978 575.416 27.774C575.224 27.57 575.086 27.3 575.002 26.964C574.93 26.628 574.894 26.22 574.894 25.74V23.814C574.894 23.202 575.074 22.752 575.434 22.464C575.806 22.176 576.244 22.032 576.748 22.032C577.252 22.032 577.678 22.176 578.026 22.464C578.374 22.752 578.548 23.202 578.548 23.814V25.128C578.548 25.332 578.578 25.458 578.638 25.506C578.698 25.554 578.83 25.578 579.034 25.578H588.466C589.018 25.578 589.408 25.722 589.636 26.01C589.864 26.286 589.978 26.604 589.978 26.964C589.978 27.336 589.858 27.66 589.618 27.936C589.39 28.224 589.006 28.368 588.466 28.368H577.45ZM585.838 13.248C585.838 12.66 586.012 12.216 586.36 11.916C586.708 11.616 587.122 11.466 587.602 11.466C588.07 11.466 588.478 11.622 588.826 11.934C589.186 12.234 589.366 12.672 589.366 13.248V15.966H589.924C590.2 15.966 590.428 16.014 590.608 16.11C590.788 16.206 590.932 16.332 591.04 16.488C591.148 16.632 591.226 16.8 591.274 16.992C591.322 17.172 591.346 17.352 591.346 17.532C591.346 17.712 591.322 17.898 591.274 18.09C591.226 18.27 591.148 18.438 591.04 18.594C590.932 18.738 590.782 18.858 590.59 18.954C590.41 19.05 590.188 19.098 589.924 19.098H589.366V24.192H585.838V13.248ZM577.432 17.91C577.432 18.102 577.456 18.228 577.504 18.288C577.564 18.348 577.684 18.378 577.864 18.378H580.6V15.138C580.6 14.97 580.57 14.856 580.51 14.796C580.45 14.724 580.33 14.688 580.15 14.688H577.864C577.684 14.688 577.564 14.724 577.504 14.796C577.456 14.856 577.432 14.97 577.432 15.138V17.91ZM596.116 14.13C595.96 14.13 595.858 14.154 595.81 14.202C595.774 14.238 595.756 14.322 595.756 14.454V14.688C595.756 14.844 595.774 14.94 595.81 14.976C595.858 15.012 595.96 15.03 596.116 15.03H606.286C606.742 15.03 607.066 15.156 607.258 15.408C607.45 15.648 607.546 15.924 607.546 16.236C607.546 16.548 607.45 16.818 607.258 17.046C607.066 17.262 606.742 17.37 606.286 17.37H594.514C594.034 17.37 593.638 17.34 593.326 17.28C593.026 17.208 592.786 17.088 592.606 16.92C592.426 16.74 592.3 16.506 592.228 16.218C592.168 15.918 592.138 15.54 592.138 15.084V14.04C592.138 13.584 592.168 13.206 592.228 12.906C592.3 12.606 592.426 12.372 592.606 12.204C592.786 12.024 593.026 11.898 593.326 11.826C593.638 11.754 594.034 11.718 594.514 11.718H606.232C606.7 11.718 607.024 11.844 607.204 12.096C607.396 12.336 607.492 12.612 607.492 12.924C607.492 13.248 607.396 13.53 607.204 13.77C607.012 14.01 606.688 14.13 606.232 14.13H596.116ZM594.172 28.368C593.788 28.368 593.452 28.302 593.164 28.17C592.876 28.05 592.636 27.882 592.444 27.666C592.264 27.462 592.126 27.222 592.03 26.946C591.946 26.67 591.904 26.376 591.904 26.064V26.01C591.904 25.374 592.084 24.858 592.444 24.462C592.804 24.066 593.38 23.868 594.172 23.868H603.802V23.526C603.802 23.334 603.676 23.238 603.424 23.238H593.11C592.774 23.238 592.516 23.136 592.336 22.932C592.168 22.716 592.084 22.488 592.084 22.248C592.084 22.008 592.162 21.78 592.318 21.564C592.486 21.348 592.75 21.24 593.11 21.24H605.494C606.262 21.24 606.79 21.384 607.078 21.672C607.366 21.948 607.51 22.362 607.51 22.914V25.722H596.116C595.984 25.722 595.894 25.752 595.846 25.812C595.798 25.86 595.774 25.932 595.774 26.028C595.774 26.124 595.798 26.202 595.846 26.262C595.894 26.322 595.984 26.352 596.116 26.352H607.042C607.39 26.352 607.636 26.46 607.78 26.676C607.936 26.88 608.014 27.108 608.014 27.36C608.014 27.576 607.942 27.798 607.798 28.026C607.654 28.254 607.402 28.368 607.042 28.368H594.172ZM606.952 18.072C607.432 18.072 607.768 18.198 607.96 18.45C608.152 18.702 608.248 18.984 608.248 19.296C608.248 19.62 608.146 19.908 607.942 20.16C607.75 20.4 607.42 20.52 606.952 20.52H592.696C592.228 20.52 591.892 20.4 591.688 20.16C591.496 19.908 591.4 19.62 591.4 19.296C591.4 18.984 591.496 18.702 591.688 18.45C591.88 18.198 592.216 18.072 592.696 18.072H606.952ZM622.09 21.042H619.732V23.184C619.732 23.976 619.612 24.678 619.372 25.29C619.132 25.89 618.796 26.394 618.364 26.802C617.932 27.21 617.41 27.516 616.798 27.72C616.186 27.924 615.508 28.026 614.764 28.026C614.02 28.026 613.342 27.924 612.73 27.72C612.118 27.516 611.59 27.21 611.146 26.802C610.714 26.394 610.378 25.89 610.138 25.29C609.898 24.678 609.778 23.976 609.778 23.184V16.596C609.778 15.804 609.898 15.108 610.138 14.508C610.378 13.896 610.714 13.386 611.146 12.978C611.59 12.57 612.118 12.264 612.73 12.06C613.342 11.856 614.02 11.754 614.764 11.754C615.508 11.754 616.186 11.856 616.798 12.06C617.41 12.264 617.932 12.57 618.364 12.978C618.796 13.386 619.132 13.896 619.372 14.508C619.612 15.108 619.732 15.804 619.732 16.596V17.964H622.09V13.212C622.09 12.636 622.27 12.204 622.63 11.916C622.99 11.616 623.404 11.466 623.872 11.466C624.1 11.466 624.322 11.508 624.538 11.592C624.754 11.664 624.946 11.772 625.114 11.916C625.282 12.06 625.414 12.24 625.51 12.456C625.618 12.672 625.672 12.924 625.672 13.212V28.368H622.09V21.042ZM613.306 23.274C613.306 23.886 613.438 24.342 613.702 24.642C613.978 24.93 614.332 25.074 614.764 25.074C615.196 25.074 615.544 24.93 615.808 24.642C616.084 24.342 616.222 23.886 616.222 23.274V16.506C616.222 15.894 616.084 15.444 615.808 15.156C615.544 14.856 615.196 14.706 614.764 14.706C614.332 14.706 613.978 14.856 613.702 15.156C613.438 15.444 613.306 15.894 613.306 16.506V23.274ZM627.724 16.542C627.724 15.93 627.826 15.342 628.03 14.778C628.234 14.214 628.534 13.722 628.93 13.302C629.326 12.882 629.812 12.546 630.388 12.294C630.976 12.042 631.648 11.916 632.404 11.916H638.884C639.64 11.916 640.306 12.042 640.882 12.294C641.47 12.546 641.962 12.882 642.358 13.302C642.754 13.722 643.054 14.214 643.258 14.778C643.462 15.342 643.564 15.93 643.564 16.542V16.758C643.564 17.37 643.462 17.958 643.258 18.522C643.054 19.074 642.754 19.566 642.358 19.998C641.962 20.418 641.47 20.754 640.882 21.006C640.306 21.246 639.64 21.366 638.884 21.366H632.404C631.648 21.366 630.976 21.246 630.388 21.006C629.812 20.754 629.326 20.418 628.93 19.998C628.534 19.566 628.234 19.074 628.03 18.522C627.826 17.958 627.724 17.37 627.724 16.758V16.542ZM630.478 25.128V23.49C630.478 23.202 630.526 22.962 630.622 22.77C630.718 22.566 630.844 22.404 631 22.284C631.168 22.164 631.36 22.08 631.576 22.032C631.792 21.984 632.02 21.96 632.26 21.96C632.488 21.96 632.71 21.99 632.926 22.05C633.142 22.098 633.334 22.182 633.502 22.302C633.67 22.41 633.802 22.566 633.898 22.77C633.994 22.962 634.042 23.202 634.042 23.49V25.128H637.246V23.49C637.246 23.202 637.294 22.962 637.39 22.77C637.486 22.566 637.612 22.404 637.768 22.284C637.936 22.164 638.128 22.08 638.344 22.032C638.56 21.984 638.788 21.96 639.028 21.96C639.256 21.96 639.478 21.99 639.694 22.05C639.91 22.098 640.102 22.182 640.27 22.302C640.438 22.41 640.57 22.566 640.666 22.77C640.762 22.962 640.81 23.202 640.81 23.49V25.128H642.556C643.108 25.128 643.498 25.278 643.726 25.578C643.954 25.878 644.068 26.208 644.068 26.568C644.068 26.94 643.948 27.27 643.708 27.558C643.48 27.858 643.096 28.008 642.556 28.008H628.732C628.192 28.008 627.802 27.858 627.562 27.558C627.334 27.27 627.22 26.94 627.22 26.568C627.22 26.208 627.334 25.878 627.562 25.578C627.79 25.278 628.18 25.128 628.732 25.128H630.478ZM639.82 16.506C639.82 16.026 639.646 15.63 639.298 15.318C638.962 15.006 638.494 14.85 637.894 14.85H633.394C632.794 14.85 632.32 15.006 631.972 15.318C631.636 15.63 631.468 16.026 631.468 16.506V16.794C631.468 17.274 631.636 17.67 631.972 17.982C632.32 18.294 632.794 18.45 633.394 18.45H637.894C638.494 18.45 638.962 18.294 639.298 17.982C639.646 17.67 639.82 17.274 639.82 16.794V16.506ZM645.688 22.896V13.374C645.688 13.086 645.736 12.834 645.832 12.618C645.94 12.39 646.078 12.204 646.246 12.06C646.414 11.904 646.606 11.79 646.822 11.718C647.05 11.634 647.284 11.592 647.524 11.592C647.752 11.592 647.974 11.634 648.19 11.718C648.418 11.79 648.616 11.904 648.784 12.06C648.964 12.204 649.102 12.39 649.198 12.618C649.306 12.834 649.36 13.086 649.36 13.374V22.896H645.688ZM645.598 25.56C645.598 24.996 645.766 24.552 646.102 24.228C646.438 23.904 646.912 23.742 647.524 23.742C648.136 23.742 648.61 23.91 648.946 24.246C649.282 24.57 649.45 25.008 649.45 25.56C649.45 26.112 649.282 26.556 648.946 26.892C648.61 27.216 648.136 27.378 647.524 27.378C646.912 27.378 646.438 27.216 646.102 26.892C645.766 26.568 645.598 26.124 645.598 25.56Z" fill="#FFF1E7"/>
<path d="M364.52 23.9938L362.156 25.3979L366.205 32.2155L367.33 28.7251L370.933 29.4075L366.884 22.5898L364.52 23.9938Z" fill="#FF8B37"/>
<path d="M366.206 33C366.07 33 365.936 32.9645 365.818 32.8971C365.699 32.8298 365.601 32.7327 365.531 32.6157L361.487 25.798C361.381 25.6193 361.35 25.4057 361.401 25.2042C361.452 25.0027 361.581 24.8298 361.76 24.7234L364.126 23.3116L366.49 21.8997C366.668 21.7935 366.882 21.7626 367.083 21.8138C367.285 21.865 367.458 21.9941 367.564 22.1727L371.613 28.9903C371.69 29.1202 371.729 29.2696 371.723 29.4205C371.717 29.5715 371.668 29.7177 371.582 29.8415C371.495 29.9653 371.374 30.0614 371.234 30.1183C371.095 30.1751 370.941 30.1904 370.793 30.1622L367.87 29.6084L366.957 32.44C366.911 32.5838 366.824 32.7113 366.707 32.807C366.59 32.9027 366.448 32.9627 366.298 32.9796L366.206 33ZM363.225 25.6725L365.986 30.3206L366.579 28.4852C366.638 28.3036 366.76 28.1495 366.924 28.0519C367.089 27.9543 367.283 27.9198 367.47 27.955L369.367 28.3127L366.606 23.6645L364.915 24.6685L363.225 25.6725Z" fill="white"/>
<path d="M357.198 23.9938L359.562 25.3979L355.513 32.2155L354.389 28.7251L350.785 29.4075L354.834 22.5898L357.198 23.9938Z" fill="#FF8B37"/>
<path d="M355.513 33H355.425C355.275 32.983 355.133 32.9231 355.016 32.8274C354.899 32.7316 354.813 32.6042 354.766 32.4603L353.853 29.6288L350.931 30.1826C350.782 30.2108 350.629 30.1955 350.489 30.1386C350.349 30.0818 350.228 29.9856 350.142 29.8619C350.055 29.7381 350.006 29.5919 350.001 29.4409C349.995 29.2899 350.033 29.1406 350.11 29.0107L354.159 22.1931C354.266 22.0145 354.439 21.8854 354.64 21.8342C354.842 21.783 355.055 21.8139 355.234 21.9201L357.598 23.332L359.964 24.7438C360.136 24.8508 360.26 25.0203 360.31 25.2168C360.36 25.4134 360.332 25.6217 360.232 25.798L356.188 32.6157C356.118 32.7327 356.02 32.8297 355.901 32.8971C355.783 32.9645 355.649 33 355.513 33ZM354.388 27.9409C354.554 27.9412 354.716 27.9941 354.849 28.0919C354.983 28.1897 355.083 28.3274 355.133 28.4852L355.726 30.3206L358.487 25.6725L355.107 23.6645L352.346 28.3127L354.242 27.955C354.29 27.9456 354.339 27.9409 354.388 27.9409Z" fill="white"/>
<path d="M360.86 28.002C366.66 28.002 371.361 23.3006 371.361 17.501C371.361 11.7015 366.66 7 360.86 7C355.061 7 350.359 11.7015 350.359 17.501C350.359 23.3006 355.061 28.002 360.86 28.002Z" fill="white"/>
<path d="M365.47 13.1258C364.587 12.8482 363.829 13.2043 363.213 13.7941C363.18 13.8254 363.14 13.8487 363.096 13.8625C363.053 13.8762 363.006 13.88 362.961 13.8735C362.916 13.8671 362.873 13.8505 362.835 13.8251C362.797 13.7996 362.765 13.766 362.742 13.7267C362.339 13.0254 361.741 12.5031 360.86 12.5031C359.978 12.5031 359.379 13.0192 358.977 13.7157C358.953 13.7537 358.921 13.786 358.883 13.8105C358.845 13.8349 358.802 13.8509 358.757 13.8573C358.713 13.8637 358.667 13.8604 358.624 13.8476C358.581 13.8348 358.541 13.8128 358.507 13.7831C357.878 13.2011 357.123 12.8497 356.246 13.1258C353.942 13.8506 354.897 17.6171 355.121 18.4014C355.131 18.4362 355.134 18.4723 355.131 18.5081C355.047 19.2744 355.181 20.0489 355.517 20.7425C355.854 21.4362 356.379 22.021 357.032 22.4299C358.427 23.3256 360.838 23.2268 360.838 23.2268H360.995C360.995 23.2268 363.29 23.3319 364.684 22.4425C365.338 22.0334 365.863 21.4486 366.199 20.7549C366.535 20.0613 366.669 19.287 366.586 18.5207C366.582 18.4828 366.586 18.4446 366.595 18.4077C366.819 17.6108 367.773 13.849 365.47 13.1258Z" fill="#FF8B37"/>
<path d="M361.223 24.0128H360.979H360.859C360.603 24.0128 358.148 24.0771 356.623 23.0919C355.859 22.616 355.241 21.9377 354.838 21.1323C354.436 20.3268 354.264 19.4256 354.342 18.5285C353.638 16.0092 353.715 13.1008 356.013 12.3776C356.654 12.1752 357.592 12.1187 358.601 12.8482C358.861 12.4948 359.2 12.2074 359.591 12.0093C359.982 11.8112 360.414 11.708 360.852 11.708C361.291 11.708 361.723 11.8112 362.114 12.0093C362.505 12.2074 362.844 12.4948 363.103 12.8482C364.117 12.1046 365.06 12.1595 365.704 12.3635C368.006 13.0866 368.079 15.9982 367.375 18.5144C367.455 19.4106 367.285 20.3113 366.885 21.1172C366.485 21.9231 365.87 22.6027 365.108 23.081C363.806 23.9312 361.914 24.0128 361.223 24.0128ZM360.838 22.4441H361.031C361.601 22.4692 363.296 22.397 364.261 21.7773C364.793 21.4469 365.221 20.9723 365.494 20.4086C365.767 19.8449 365.875 19.2153 365.805 18.5928C365.792 18.4563 365.805 18.3185 365.842 18.1865C365.886 18.0297 366.911 14.4044 365.235 13.8773C364.922 13.7784 364.427 13.7204 363.756 14.3636C363.637 14.4778 363.493 14.5633 363.335 14.6137C363.178 14.664 363.011 14.6778 362.847 14.6541C362.684 14.6304 362.528 14.5697 362.391 14.4767C362.254 14.3837 362.141 14.2608 362.059 14.1173C361.632 13.3737 361.164 13.2874 360.849 13.2874C360.534 13.2874 360.065 13.3721 359.646 14.1079C359.562 14.2494 359.448 14.3704 359.311 14.4619C359.175 14.5533 359.019 14.6129 358.856 14.6363C358.694 14.6596 358.528 14.6461 358.371 14.5967C358.214 14.5474 358.07 14.4634 357.95 14.351C357.285 13.7235 356.794 13.7753 356.482 13.8804C354.806 14.4012 355.839 18.0297 355.875 18.185C355.912 18.3147 355.925 18.4505 355.912 18.585C355.843 19.2074 355.951 19.8368 356.224 20.4004C356.497 20.9639 356.924 21.4386 357.456 21.7695C358.424 22.397 360.203 22.4644 360.807 22.4409L360.838 22.4441Z" fill="#FF8B37"/>
<path d="M357.94 19.3459C358.265 19.3459 358.528 19.0881 358.528 18.7702C358.528 18.4522 358.265 18.1945 357.94 18.1945C357.615 18.1945 357.352 18.4522 357.352 18.7702C357.352 19.0881 357.615 19.3459 357.94 19.3459Z" fill="white"/>
<path d="M363.778 19.3459C364.103 19.3459 364.366 19.0881 364.366 18.7702C364.366 18.4522 364.103 18.1945 363.778 18.1945C363.453 18.1945 363.189 18.4522 363.189 18.7702C363.189 19.0881 363.453 19.3459 363.778 19.3459Z" fill="white"/>
</svg>
