<svg id="Layer_1" data-name="Layer 1" xmlns="http://www.w3.org/2000/svg" xmlns:xlink="http://www.w3.org/1999/xlink" viewBox="0 0 16 16"><defs><style>.cls-1{fill:none;}.cls-2{fill:url(#linear-gradient);}.cls-3{fill:url(#linear-gradient-2);}.cls-4{clip-path:url(#clip-path);}.cls-5{fill:#e03d1e;}.cls-6{fill:url(#linear-gradient-3);}.cls-7{fill:url(#linear-gradient-4);}.cls-8{fill:#fff;}.cls-9{fill:#ff8b37;}</style><linearGradient id="linear-gradient" x1="12.58" y1="14.89" x2="10.16" y2="10.29" gradientUnits="userSpaceOnUse"><stop offset="0" stop-color="#e1413b"/><stop offset="0.4" stop-color="#f25133"/><stop offset="0.65" stop-color="#ff5e2c"/></linearGradient><linearGradient id="linear-gradient-2" x1="2.89" y1="15.2" x2="5.99" y2="10.58" xlink:href="#linear-gradient"/><clipPath id="clip-path"><circle class="cls-1" cx="8" cy="6.8" r="6.8"/></clipPath><linearGradient id="linear-gradient-3" x1="2.64" y1="8.95" x2="14.25" y2="4.13" gradientUnits="userSpaceOnUse"><stop offset="0" stop-color="#ff7125"/><stop offset="0.18" stop-color="#ff8231"/><stop offset="0.26" stop-color="#ff8b37"/><stop offset="0.54" stop-color="#ffa737"/><stop offset="0.72" stop-color="#ffc36b"/><stop offset="0.99" stop-color="#ff7f37"/></linearGradient><linearGradient id="linear-gradient-4" x1="278.09" y1="-212.45" x2="288.32" y2="-216.7" gradientTransform="translate(302.05 205.45) rotate(-108.78)" xlink:href="#linear-gradient-3"/></defs><path class="cls-2" d="M14.43,13.61,12,9.53a.46.46,0,0,0-.64-.16L8.54,11.05a.46.46,0,0,0-.17.64l2.43,4.08a.46.46,0,0,0,.4.23h.05a.49.49,0,0,0,.4-.33L12.19,14l1.75.33a.47.47,0,0,0,.49-.7Z"/><path class="cls-3" d="M7.46,11.05,4.63,9.37A.46.46,0,0,0,4,9.53L1.57,13.61a.47.47,0,0,0,.49.7L3.81,14l.54,1.69a.49.49,0,0,0,.4.33h0a.46.46,0,0,0,.4-.23l2.43-4.08A.46.46,0,0,0,7.46,11.05Z"/><g class="cls-4"><path class="cls-5" d="M14.43,13.61,12,9.53a.46.46,0,0,0-.64-.16L8.54,11.05a.46.46,0,0,0-.17.64l2.43,4.08a.46.46,0,0,0,.4.23h.05a.49.49,0,0,0,.4-.33L12.19,14l1.75.33a.47.47,0,0,0,.49-.7Z"/><path class="cls-5" d="M7.46,11.05,4.63,9.37A.46.46,0,0,0,4,9.53L1.57,13.61a.47.47,0,0,0,.49.7L3.81,14l.54,1.69a.49.49,0,0,0,.4.33h0a.46.46,0,0,0,.4-.23l2.43-4.08A.46.46,0,0,0,7.46,11.05Z"/></g><circle class="cls-6" cx="8" cy="6.72" r="6.28"/><circle class="cls-7" cx="8" cy="6.72" r="5.54"/><path class="cls-8" d="M10.76,4.11a1.3,1.3,0,0,0-1.35.4.18.18,0,0,1-.28,0A1.3,1.3,0,0,0,8,3.73a1.27,1.27,0,0,0-1.12.73.19.19,0,0,1-.29,0,1.3,1.3,0,0,0-1.34-.39c-1.38.43-.81,2.68-.67,3.15v.07A2.44,2.44,0,0,0,5.71,9.67,4.7,4.7,0,0,0,8,10.15h.09a4.54,4.54,0,0,0,2.21-.47,2.46,2.46,0,0,0,1.14-2.35s0,0,0-.07C11.57,6.79,12.14,4.54,10.76,4.11Z"/><path class="cls-8" d="M8.22,10.62H8a5,5,0,0,1-2.54-.55A2.91,2.91,0,0,1,4.1,7.34c-.42-1.51-.38-3.25,1-3.68a1.68,1.68,0,0,1,1.55.28A1.68,1.68,0,0,1,9.34,4a1.68,1.68,0,0,1,1.56-.29h0c1.38.43,1.42,2.17,1,3.68a2.91,2.91,0,0,1-1.36,2.73A4.7,4.7,0,0,1,8.22,10.62ZM8,9.68H8.1A3.93,3.93,0,0,0,10,9.28,2,2,0,0,0,11,7.38a.69.69,0,0,1,0-.25c0-.09.64-2.26-.36-2.58a.86.86,0,0,0-.89.3.65.65,0,0,1-1-.15A.82.82,0,0,0,8,4.2a.8.8,0,0,0-.72.49.65.65,0,0,1-1,.15.85.85,0,0,0-.88-.29C4.38,4.87,5,7,5,7.13a.65.65,0,0,1,0,.24A2,2,0,0,0,6,9.28a4.14,4.14,0,0,0,2,.4Z"/><ellipse class="cls-9" cx="6.25" cy="7.49" rx="0.35" ry="0.34"/><ellipse class="cls-9" cx="9.75" cy="7.49" rx="0.35" ry="0.34"/></svg>