<svg id="Layer_1" data-name="Layer 1" xmlns="http://www.w3.org/2000/svg" viewBox="0 0 180 180"><defs><style>.cls-1{fill:#fff;}.cls-2{fill:#ff8b37;}</style></defs><polygon class="cls-1" points="113.34 117.96 98.27 126.91 124.08 170.37 131.25 148.12 154.22 152.47 128.41 109.01 113.34 117.96"/><path class="cls-2" d="M124.08,175.37a5,5,0,0,1-4.3-2.45L94,129.46a5,5,0,0,1,1.74-6.85l15.08-9h0l15.07-9a5,5,0,0,1,6.85,1.74l25.81,43.46a5,5,0,0,1-5.23,7.47l-18.63-3.53-5.82,18.05a5,5,0,0,1-4.2,3.44Zm-19-46.71,17.6,29.63,3.78-11.7a5,5,0,0,1,5.68-3.38l12.09,2.28-17.6-29.63-10.78,6.4h0Z"/><polygon class="cls-1" points="66.66 117.96 81.73 126.91 55.92 170.37 48.75 148.12 25.78 152.47 51.59 109.01 66.66 117.96"/><path class="cls-2" d="M55.92,175.37l-.56,0a5,5,0,0,1-4.2-3.44l-5.82-18.05-18.63,3.53a5,5,0,0,1-5.23-7.47l25.81-43.46a5,5,0,0,1,6.85-1.74l15.07,9h0l15.08,9A5,5,0,0,1,86,129.46L60.22,172.92A5,5,0,0,1,55.92,175.37Zm-7.17-32.25a5,5,0,0,1,4.75,3.47l3.78,11.7,17.6-29.63-21.55-12.8-17.6,29.63,12.09-2.28A4.88,4.88,0,0,1,48.75,143.12Z"/><circle class="cls-2" cx="90" cy="76.57" r="66.94"/><path class="cls-1" d="M119.4,48.68c-5.63-1.77-10.46.5-14.39,4.26a1.94,1.94,0,0,1-3-.43c-2.57-4.47-6.38-7.8-12-7.8s-9.44,3.29-12,7.73a2,2,0,0,1-3,.43C71,49.16,66.19,46.92,60.6,48.68,45.91,53.3,52,77.31,53.43,82.31a1.94,1.94,0,0,1,.06.68,26.14,26.14,0,0,0,12.12,25c8.89,5.71,24.26,5.08,24.26,5.08h1s14.63.67,23.52-5a26.15,26.15,0,0,0,12.12-25,2.2,2.2,0,0,1,.06-.72C128,77.27,134.08,53.29,119.4,48.68Z"/><path class="cls-1" d="M92.32,118.08l-1.55,0H90c-1.63,0-17.28.41-27-5.87A31.09,31.09,0,0,1,48.46,83.12c-4.49-16.06-4-34.6,10.65-39.21,4.09-1.29,10.07-1.65,16.5,3a17.8,17.8,0,0,1,28.7,0c6.46-4.74,12.47-4.39,16.58-3.09,14.67,4.61,15.14,23.17,10.65,39.21a31.11,31.11,0,0,1-14.45,29.11C108.79,117.56,96.73,118.08,92.32,118.08Zm-2.45-10H91.1c3.63.16,14.44-.3,20.59-4.25a21.11,21.11,0,0,0,9.84-20.3,7.06,7.06,0,0,1,.24-2.59c.28-1,6.81-24.11-3.87-27.47h0c-2-.63-5.15-1-9.43,3.1A6.94,6.94,0,0,1,97.65,55c-2.72-4.74-5.7-5.29-7.71-5.29s-5,.54-7.67,5.23a7,7,0,0,1-10.81,1.55c-4.24-4-7.37-3.67-9.36-3C51.42,56.81,58,79.94,58.23,80.93a6.82,6.82,0,0,1,.24,2.55,21.14,21.14,0,0,0,9.84,20.3c6.17,4,17.51,4.43,21.36,4.28ZM48.62,83.69v0Zm-.11-1.18h0Z"/><ellipse class="cls-2" cx="71.4" cy="84.66" rx="3.75" ry="3.67"/><ellipse class="cls-2" cx="108.6" cy="84.66" rx="3.75" ry="3.67"/></svg>