<svg id="Layer_1" data-name="Layer 1" xmlns="http://www.w3.org/2000/svg" xmlns:xlink="http://www.w3.org/1999/xlink" viewBox="0 0 180 180"><defs><style>.cls-1{fill:none;}.cls-2{fill:url(#linear-gradient);}.cls-3{fill:url(#linear-gradient-2);}.cls-4{clip-path:url(#clip-path);}.cls-5{fill:#e03d1e;}.cls-6{fill:url(#linear-gradient-3);}.cls-7{fill:url(#linear-gradient-4);}.cls-8{fill:#fff;stroke:#fff;stroke-miterlimit:10;stroke-width:10px;}.cls-9{fill:#ff8b37;}</style><linearGradient id="linear-gradient" x1="138.81" y1="163.39" x2="112.99" y2="114.38" gradientUnits="userSpaceOnUse"><stop offset="0" stop-color="#e1413b"/><stop offset="0.4" stop-color="#f25133"/><stop offset="0.65" stop-color="#ff5e2c"/></linearGradient><linearGradient id="linear-gradient-2" x1="35.58" y1="166.66" x2="68.54" y2="117.48" xlink:href="#linear-gradient"/><clipPath id="clip-path"><circle class="cls-1" cx="90" cy="77.18" r="72.4"/></clipPath><linearGradient id="linear-gradient-3" x1="32.88" y1="100.1" x2="156.58" y2="48.81" gradientUnits="userSpaceOnUse"><stop offset="0" stop-color="#ff7125"/><stop offset="0.18" stop-color="#ff8231"/><stop offset="0.26" stop-color="#ff8b37"/><stop offset="0.54" stop-color="#ffa737"/><stop offset="0.72" stop-color="#ffc36b"/><stop offset="0.99" stop-color="#ff7f37"/></linearGradient><linearGradient id="linear-gradient-4" x1="35.32" y1="100.7" x2="144.29" y2="55.52" gradientTransform="translate(41.99 183.2) rotate(-108.78)" xlink:href="#linear-gradient-3"/></defs><path class="cls-2" d="M158.52,149.77l-25.81-43.46a5,5,0,0,0-6.85-1.75l-30.15,17.9A5,5,0,0,0,94,129.31l25.81,43.46a5,5,0,0,0,4.3,2.45l.56,0a5,5,0,0,0,4.2-3.43l5.82-18,18.63,3.52a5,5,0,0,0,5.23-7.46Z"/><path class="cls-3" d="M84.29,122.46l-30.15-17.9a5,5,0,0,0-6.85,1.75L21.48,149.77a5,5,0,0,0,5.23,7.46l18.63-3.52,5.82,18a5,5,0,0,0,4.2,3.43l.56,0a5,5,0,0,0,4.3-2.45L86,129.31A5,5,0,0,0,84.29,122.46Z"/><g class="cls-4"><path class="cls-5" d="M158.52,149.77,132.71,106.3a5,5,0,0,0-6.85-1.74l-30.15,17.9A5,5,0,0,0,94,129.31l25.81,43.46a5,5,0,0,0,4.3,2.45l.56,0a5,5,0,0,0,4.2-3.43l5.82-18,18.63,3.52a5,5,0,0,0,5.23-7.46Z"/><path class="cls-5" d="M84.29,122.46l-30.15-17.9a5,5,0,0,0-6.85,1.74L21.48,149.77a5,5,0,0,0,5.23,7.46l18.63-3.52,5.82,18a5,5,0,0,0,4.2,3.43l.56,0a5,5,0,0,0,4.3-2.45L86,129.31A5,5,0,0,0,84.29,122.46Z"/></g><circle class="cls-6" cx="90" cy="76.42" r="66.94"/><circle class="cls-7" cx="90" cy="76.42" r="58.97"/><path class="cls-8" d="M119.4,48.53c-5.63-1.77-10.46.51-14.39,4.26a1.94,1.94,0,0,1-3-.43c-2.57-4.47-6.38-7.8-12-7.8s-9.44,3.29-12,7.73a2,2,0,0,1-3,.43C71,49,66.19,46.77,60.6,48.53,45.91,53.15,52,77.16,53.43,82.16a2,2,0,0,1,.06.69,26.16,26.16,0,0,0,12.12,25c8.89,5.7,24.26,5.07,24.26,5.07h1s14.63.67,23.52-5a26.14,26.14,0,0,0,12.12-25,2.24,2.24,0,0,1,.06-.73C128,77.12,134.08,53.15,119.4,48.53Z"/><ellipse class="cls-9" cx="71.4" cy="84.51" rx="3.75" ry="3.67"/><ellipse class="cls-9" cx="108.6" cy="84.51" rx="3.75" ry="3.67"/></svg>