<svg id="Layer_1" data-name="Layer 1" xmlns="http://www.w3.org/2000/svg" viewBox="0 0 630 168"><defs><style>.cls-1{fill:#fff;}.cls-2{fill:#ff8b37;}</style></defs><polygon class="cls-1" points="94.14 109.46 79.07 118.41 104.88 161.87 112.05 139.62 135.02 143.97 109.21 100.51 94.14 109.46"/><path class="cls-2" d="M104.88,166.87a5,5,0,0,1-4.3-2.45L74.77,121a5,5,0,0,1,1.74-6.85l15.07-9h0l15.07-9A5,5,0,0,1,113.51,98l25.81,43.46a5,5,0,0,1-5.23,7.47l-18.63-3.53-5.82,18.05a5,5,0,0,1-4.2,3.44Zm-19-46.71,17.6,29.63,3.77-11.7a5,5,0,0,1,5.69-3.38L125.07,137l-17.61-29.63-10.77,6.4h0Z"/><polygon class="cls-1" points="47.46 109.46 62.53 118.41 36.72 161.87 29.55 139.62 6.58 143.97 32.39 100.51 47.46 109.46"/><path class="cls-2" d="M36.72,166.87a5.25,5.25,0,0,1-.56,0A5,5,0,0,1,32,163.4l-5.82-18.05L7.5,148.88a5,5,0,0,1-5.22-7.47L28.09,98a5,5,0,0,1,6.85-1.74l15.07,9h0l15.07,9A5,5,0,0,1,66.83,121L41,164.42A5,5,0,0,1,36.72,166.87Zm-7.17-32.25a5,5,0,0,1,4.75,3.47l3.78,11.7,17.6-29.63-21.55-12.8L16.53,137l12.09-2.28A4.88,4.88,0,0,1,29.55,134.62Z"/><circle class="cls-2" cx="70.8" cy="68.07" r="66.94"/><path class="cls-1" d="M100.19,40.18c-5.62-1.77-10.45.5-14.38,4.26a1.94,1.94,0,0,1-3-.43c-2.57-4.47-6.38-7.8-12.05-7.8s-9.44,3.29-12,7.73a2,2,0,0,1-3,.43C51.8,40.66,47,38.42,41.4,40.18c-14.69,4.62-8.62,28.63-7.17,33.63a1.94,1.94,0,0,1,.06.68,26.1,26.1,0,0,0,12.12,25c8.88,5.71,24.26,5.08,24.26,5.08h1s14.63.67,23.52-5a26.17,26.17,0,0,0,12.12-25,1.76,1.76,0,0,1,.06-.72C108.82,68.77,114.88,44.79,100.19,40.18Z"/><path class="cls-1" d="M73.12,109.58l-1.55,0h-.81c-1.63,0-17.28.41-27.05-5.87A31.09,31.09,0,0,1,29.26,74.62c-4.49-16.06-4-34.6,10.64-39.21,4.1-1.29,10.08-1.65,16.51,3a17.8,17.8,0,0,1,28.7,0c6.46-4.74,12.47-4.39,16.58-3.09,14.67,4.61,15.14,23.17,10.65,39.22a31.1,31.1,0,0,1-14.45,29.1C89.59,109.06,77.53,109.58,73.12,109.58Zm-2.45-10H71.9c3.63.16,14.44-.3,20.59-4.25A21.11,21.11,0,0,0,102.33,75a7.06,7.06,0,0,1,.24-2.59c.28-1,6.81-24.11-3.87-27.47h0c-2-.63-5.15-1-9.43,3.1A6.94,6.94,0,0,1,78.45,46.5c-2.72-4.74-5.7-5.29-7.71-5.29s-5,.54-7.68,5.23A7,7,0,0,1,52.26,48c-4.25-4-7.37-3.67-9.36-3C32.21,48.31,38.75,71.44,39,72.43A6.82,6.82,0,0,1,39.27,75a21.12,21.12,0,0,0,9.84,20.3c6.16,4,17.51,4.43,21.36,4.28ZM29.42,75.19v0ZM29.31,74h0Z"/><ellipse class="cls-2" cx="52.19" cy="76.16" rx="3.75" ry="3.67"/><ellipse class="cls-2" cx="89.4" cy="76.16" rx="3.75" ry="3.67"/><path class="cls-2" d="M273.38,75.46q5,0,7,2.61a9.25,9.25,0,0,1,2,5.84,9.06,9.06,0,0,1-2.08,5.91q-2.08,2.55-6.95,2.55H183.06q-4.86,0-6.95-2.55A9.06,9.06,0,0,1,174,83.91a9.25,9.25,0,0,1,2-5.84q2-2.61,7-2.61ZM239.1,40.84a4,4,0,0,1,0,.63A2.68,2.68,0,0,0,239,42a50.19,50.19,0,0,1,13.32,1.1,37,37,0,0,1,12.1,5,32.76,32.76,0,0,1,9.43,9.38,38.17,38.17,0,0,1,5.56,14.3H255.9a18.42,18.42,0,0,0-4.11-6.6,20.05,20.05,0,0,0-6.26-4.34,23.94,23.94,0,0,0-7.82-1.91,34.61,34.61,0,0,0-8.8.46,43.19,43.19,0,0,1-8.74,5.91,59.34,59.34,0,0,1-10.36,4.17,67.27,67.27,0,0,1-11.24,2.31,56.43,56.43,0,0,1-11.46.24q-5.21-.36-7.7-3.07a8.48,8.48,0,0,1-2.37-6.2,9.33,9.33,0,0,1,.69-3.47,9,9,0,0,1,2-3.07,9.08,9.08,0,0,1,3.3-2.08,12.73,12.73,0,0,1,4.63-.76,35,35,0,0,0,8.74-.92,37,37,0,0,0,8.46-3,28.38,28.38,0,0,0,6.77-4.75,13.45,13.45,0,0,0,3.82-6.26q1.4-5.32,5.27-7.52a13.64,13.64,0,0,1,8.63-1.62,12.29,12.29,0,0,1,7.35,3.24C238.54,34.28,239.34,37.05,239.1,40.84Zm-48,54.89a13.94,13.94,0,0,1,7.06,1.85,8.65,8.65,0,0,1,4.17,5.9H254q.81-4.4,4.06-6.08a16,16,0,0,1,7.41-1.67,17.48,17.48,0,0,1,4.28.52,11.25,11.25,0,0,1,3.76,1.68,8.27,8.27,0,0,1,2.67,3.06,10.26,10.26,0,0,1,1,4.69v33.24H195.79a33.55,33.55,0,0,1-8.45-.87,10.08,10.08,0,0,1-5-2.89,11.21,11.21,0,0,1-2.43-5.39,47,47,0,0,1-.63-8.45V105.68a10.13,10.13,0,0,1,1-4.69,8.39,8.39,0,0,1,2.61-3.06,10.65,10.65,0,0,1,3.76-1.68A18.65,18.65,0,0,1,191.05,95.73Zm62.88,28.14v-6.14H202.51v2.55a4.15,4.15,0,0,0,.75,2.66,3.53,3.53,0,0,0,2.84.93Z"/><path class="cls-2" d="M305.23,80.9V69c0-3.79,1-6.43,2.89-7.94a12.11,12.11,0,0,1,7.64-2.25,11.71,11.71,0,0,1,7.53,2.31c1.93,1.55,2.9,4.17,2.9,7.88V80.9h29.52q5.32,0,7.53,2.61a9.87,9.87,0,0,1-.06,12.5q-2.25,2.61-7.47,2.61H299.44q-5.22,0-7.53-2.61a9.67,9.67,0,0,1-.06-12.5c1.51-1.74,4-2.61,7.59-2.61ZM303,51.37c-3.63,0-6.26-.88-7.88-2.66a9.41,9.41,0,0,1-2.43-6.6,9.09,9.09,0,0,1,2.37-6.25q2.37-2.67,7.94-2.67h42.15q8.1,0,11.46,3.25T360,45.82V55.89a80.38,80.38,0,0,1-.81,11.81,38.06,38.06,0,0,1-2.2,8.8H335.57a33.27,33.27,0,0,0,2-8.51,79.6,79.6,0,0,0,.64-9.9v-4.4a2.28,2.28,0,0,0-.58-1.85,3.44,3.44,0,0,0-2.08-.47Zm12.27,87.55a29.32,29.32,0,0,1-8.05-.93,10.93,10.93,0,0,1-5-2.89,11.07,11.07,0,0,1-2.61-5.21,35.51,35.51,0,0,1-.75-7.88v-7.29q0-5.91,3.53-8.57a13.5,13.5,0,0,1,8.39-2.67,12.81,12.81,0,0,1,8.23,2.67q3.35,2.66,3.35,8.57v3.59c0,1.31.2,2.12.58,2.43a4.59,4.59,0,0,0,2.55.46h60.68q5.32,0,7.53,2.67a9.72,9.72,0,0,1-.06,12.39q-2.26,2.66-7.47,2.66Zm54-97.27q0-5.67,3.36-8.57a12.28,12.28,0,0,1,15.92.06Q392,36.08,392,41.65V59.13h3.59a9.26,9.26,0,0,1,4.4.93,8,8,0,0,1,2.78,2.37,9.78,9.78,0,0,1,1.51,3.25,13.77,13.77,0,0,1,0,7.06A9.64,9.64,0,0,1,402.73,76a7.78,7.78,0,0,1-2.84,2.38,9.43,9.43,0,0,1-4.34.92H392v32.77h-22.7Z"/><path class="cls-2" d="M411.42,72q9-2.55,13.43-9.56t4.4-19.63v-.69a11,11,0,0,1,1-4.81A9.49,9.49,0,0,1,432.9,34a11,11,0,0,1,3.82-2,15.37,15.37,0,0,1,4.46-.64A12.45,12.45,0,0,1,449,34.18c2.2,1.81,3.3,4.46,3.3,7.93v.69c0,1.86-.05,3.63-.17,5.33a42.34,42.34,0,0,1-.64,5,35.74,35.74,0,0,1,11,3.24,23.86,23.86,0,0,1,8.4,6.78,30.5,30.5,0,0,1,5.21,10.59,46.59,46.59,0,0,1,1.45,14.71H455.19c.38-5-.23-9-1.86-12a11,11,0,0,0-7.64-5.61A39.09,39.09,0,0,1,433.3,84.67a35,35,0,0,1-15.63,5.84,11.51,11.51,0,0,1-7.76-1.68A8.53,8.53,0,0,1,406,83.68a10.23,10.23,0,0,1,.41-7.35A7.44,7.44,0,0,1,411.42,72Zm18.52,66.93a33.55,33.55,0,0,1-8.45-.87,10.08,10.08,0,0,1-5-2.89,11,11,0,0,1-2.43-5.39,46.9,46.9,0,0,1-.64-8.45v-9.5a47,47,0,0,1,.64-8.39A11,11,0,0,1,416.45,98a10,10,0,0,1,5-2.89,33.55,33.55,0,0,1,8.45-.87h62a33.55,33.55,0,0,1,8.45.87,10,10,0,0,1,5,2.89,11.22,11.22,0,0,1,2.43,5.45,47,47,0,0,1,.64,8.39v27.1Zm6.26-19.46a4.13,4.13,0,0,0,.52,2.61,3.36,3.36,0,0,0,2.26.52h46.66v-9.15a3.55,3.55,0,0,0-.58-2.49,3.64,3.64,0,0,0-2.31-.52H439a3.42,3.42,0,0,0-2.26.52,3.86,3.86,0,0,0-.52,2.49Zm48.63-77.81q0-5.67,3.42-8.57a12.44,12.44,0,0,1,16,.06q3.46,2.94,3.47,8.51v8.57h3.59a9.38,9.38,0,0,1,4.4.92,8.2,8.2,0,0,1,2.78,2.32A8.91,8.91,0,0,1,520,56.64a13.81,13.81,0,0,1,0,7.07A9.62,9.62,0,0,1,518.53,67a7.37,7.37,0,0,1-2.84,2.32,10,10,0,0,1-4.34.86h-3.59V90.05H484.83Z"/><path class="cls-2" d="M561.26,118.42a38.35,38.35,0,0,0,5.39-2.89,15.5,15.5,0,0,0,4.28-4.23,20,20,0,0,0,2.78-6.72,45.88,45.88,0,0,0,1-10.36V55.66a2.67,2.67,0,0,0-.52-2,2.91,2.91,0,0,0-1.91-.46H560.57v39.6q0,10-2.9,16.73a33.6,33.6,0,0,1-7.29,11.06,29.58,29.58,0,0,1-9.56,6.37,35.67,35.67,0,0,1-9.55,2.55,9.24,9.24,0,0,1-6.6-1.39,7.49,7.49,0,0,1-3.24-5,12,12,0,0,1,.52-6.77q1.21-3.08,5.5-4.93c1.39-.61,2.79-1.29,4.22-2a13.39,13.39,0,0,0,3.88-3.07,15,15,0,0,0,2.84-5.21,27,27,0,0,0,1.1-8.46V56a2.66,2.66,0,0,0-.52-2,2.94,2.94,0,0,0-1.91-.47h-6.72a9.82,9.82,0,0,1-4.17-.81,7.89,7.89,0,0,1-2.83-2.14,8.64,8.64,0,0,1-1.63-3.07,12.27,12.27,0,0,1-.52-3.47,12.77,12.77,0,0,1,.47-3.42,8.51,8.51,0,0,1,1.56-3.07,7.73,7.73,0,0,1,2.84-2.2,10.09,10.09,0,0,1,4.28-.81h50.49a36.5,36.5,0,0,1,7.93.7,9.37,9.37,0,0,1,4.69,2.31,8.46,8.46,0,0,1,2.2,4.35,33.65,33.65,0,0,1,.58,6.89V94.34A56,56,0,0,1,593.74,112a39.3,39.3,0,0,1-6.66,12.56,32,32,0,0,1-9.49,8,37.06,37.06,0,0,1-11,3.94,10.55,10.55,0,0,1-6.72-.81,7.29,7.29,0,0,1-4-4.52,10.73,10.73,0,0,1,.17-7.53A9.84,9.84,0,0,1,561.26,118.42Zm44.24,20.5V41.65c0-3.78,1.13-6.64,3.41-8.57a12.62,12.62,0,0,1,16.1,0c2.28,1.93,3.41,4.79,3.41,8.57v97.27Z"/></svg>