<svg id="Layer_1" data-name="Layer 1" xmlns="http://www.w3.org/2000/svg" viewBox="0 0 460 110"><defs><style>.cls-1{fill:#ff8b37;}</style></defs><path class="cls-1" d="M102.16,46.43q5,0,7,2.61a9.31,9.31,0,0,1,2,5.85,9,9,0,0,1-2.09,5.9q-2.09,2.55-6.94,2.55H11.83q-4.86,0-6.95-2.55a9,9,0,0,1-2.08-5.9,9.31,9.31,0,0,1,2-5.85q2-2.61,7-2.61ZM67.88,11.81a3.24,3.24,0,0,1-.06.64,2.52,2.52,0,0,0-.06.52,49.74,49.74,0,0,1,13.32,1.1,36.59,36.59,0,0,1,12.1,5,32.54,32.54,0,0,1,9.44,9.38,38.27,38.27,0,0,1,5.56,14.3H84.67a18.25,18.25,0,0,0-4.11-6.6,20.16,20.16,0,0,0-6.25-4.35,24.26,24.26,0,0,0-7.82-1.91,34.16,34.16,0,0,0-8.8.47A43,43,0,0,1,49,36.24a59.44,59.44,0,0,1-10.37,4.17,68.19,68.19,0,0,1-11.23,2.32A57.15,57.15,0,0,1,15.89,43q-5.22-.35-7.71-3.07A8.45,8.45,0,0,1,5.81,33.7a9.2,9.2,0,0,1,.7-3.48,9,9,0,0,1,2-3.07,9.39,9.39,0,0,1,3.3-2.08,13,13,0,0,1,4.63-.75,35.6,35.6,0,0,0,8.75-.93,36.92,36.92,0,0,0,8.45-3,28.16,28.16,0,0,0,6.78-4.75,13.5,13.5,0,0,0,3.82-6.25q1.38-5.33,5.26-7.53A13.65,13.65,0,0,1,58.15.23a12.44,12.44,0,0,1,7.36,3.24Q68.22,6.14,67.88,11.81ZM19.82,66.7a14.08,14.08,0,0,1,7.07,1.85,8.69,8.69,0,0,1,4.17,5.91H82.82c.54-2.94,1.89-5,4.05-6.08a15.86,15.86,0,0,1,7.41-1.68,17.5,17.5,0,0,1,4.29.52,11.54,11.54,0,0,1,3.76,1.68A8.11,8.11,0,0,1,105,72a10.07,10.07,0,0,1,1,4.69v33.23H24.57a33.55,33.55,0,0,1-8.45-.87,10,10,0,0,1-5-2.89,11,11,0,0,1-2.43-5.39A46,46,0,0,1,8,92.29V76.66A10.07,10.07,0,0,1,9,72a8.32,8.32,0,0,1,2.6-3.07,10.92,10.92,0,0,1,3.76-1.68A18.71,18.71,0,0,1,19.82,66.7ZM82.7,94.84V88.7H31.29v2.55A4.13,4.13,0,0,0,32,93.91a3.52,3.52,0,0,0,2.84.93Z"/><path class="cls-1" d="M134,51.88V40c0-3.78,1-6.43,2.9-7.93a12,12,0,0,1,7.64-2.26,11.71,11.71,0,0,1,7.53,2.31C154,33.62,155,36.24,155,40V51.88h29.53c3.55,0,6.06.86,7.53,2.6A9.89,9.89,0,0,1,192,67q-2.27,2.6-7.47,2.6H128.21q-5.21,0-7.53-2.6a9.7,9.7,0,0,1-.05-12.51c1.5-1.74,4-2.6,7.58-2.6Zm-2.2-29.53q-5.45,0-7.87-2.67a9.41,9.41,0,0,1-2.44-6.6,9.12,9.12,0,0,1,2.38-6.25c1.58-1.78,4.23-2.66,7.93-2.66H174q8.1,0,11.47,3.24t3.35,9.38V26.86A80.28,80.28,0,0,1,188,38.67a38.16,38.16,0,0,1-2.2,8.81H164.34a33.32,33.32,0,0,0,2-8.52,81.51,81.51,0,0,0,.63-9.9v-4.4a2.33,2.33,0,0,0-.57-1.85,3.48,3.48,0,0,0-2.09-.46Zm12.28,87.54A29.22,29.22,0,0,1,136,109a10.83,10.83,0,0,1-5-2.89,11.11,11.11,0,0,1-2.61-5.21,35.51,35.51,0,0,1-.75-7.88V85.69q0-5.91,3.53-8.57a13.55,13.55,0,0,1,8.4-2.66,12.79,12.79,0,0,1,8.22,2.66c2.24,1.78,3.36,4.63,3.36,8.57v3.59c0,1.31.19,2.12.58,2.43a4.54,4.54,0,0,0,2.55.46H215q5.33,0,7.52,2.67a9.72,9.72,0,0,1-.06,12.39q-2.25,2.65-7.46,2.66Zm54-97.27Q198,7,201.4,4.05a12.31,12.31,0,0,1,15.92.06c2.28,2,3.42,4.8,3.42,8.51V30.11h3.58a9.42,9.42,0,0,1,4.41.92,8,8,0,0,1,2.77,2.38A9.45,9.45,0,0,1,233,36.65a13.77,13.77,0,0,1,0,7.06A9.45,9.45,0,0,1,231.5,47a7.83,7.83,0,0,1-2.83,2.38,9.38,9.38,0,0,1-4.35.93h-3.58V83H198Z"/><path class="cls-1" d="M240.19,43q9-2.55,13.43-9.55T258,13.78v-.7a10.82,10.82,0,0,1,1-4.8,9.48,9.48,0,0,1,2.66-3.36,11.28,11.28,0,0,1,3.82-2A15.77,15.77,0,0,1,270,2.31a12.48,12.48,0,0,1,7.82,2.84q3.3,2.73,3.3,7.93v.7c0,1.85-.06,3.63-.18,5.32a42.34,42.34,0,0,1-.63,5,36.11,36.11,0,0,1,11,3.25,23.82,23.82,0,0,1,8.39,6.77,30.46,30.46,0,0,1,5.21,10.6,46.52,46.52,0,0,1,1.45,14.7H284q.59-7.51-1.85-12a11,11,0,0,0-7.64-5.62,39,39,0,0,1-12.39,13.84,35.16,35.16,0,0,1-15.64,5.85,11.48,11.48,0,0,1-7.75-1.68,8.51,8.51,0,0,1-3.94-5.15,10.25,10.25,0,0,1,.4-7.36A7.48,7.48,0,0,1,240.19,43Zm18.53,66.93a33.5,33.5,0,0,1-8.45-.87,9.92,9.92,0,0,1-5-2.89,11,11,0,0,1-2.43-5.39,46,46,0,0,1-.64-8.45v-9.5a46.27,46.27,0,0,1,.64-8.39A11,11,0,0,1,245.23,69a9.93,9.93,0,0,1,5-2.9,33.5,33.5,0,0,1,8.45-.87h61.95a33.5,33.5,0,0,1,8.45.87,10,10,0,0,1,5,2.9,11,11,0,0,1,2.43,5.44,46.27,46.27,0,0,1,.64,8.39v27.1ZM265,90.44a4.16,4.16,0,0,0,.52,2.6,3.36,3.36,0,0,0,2.26.52h46.67V84.42c0-1.32-.19-2.15-.58-2.49a3.62,3.62,0,0,0-2.32-.53H267.75a3.35,3.35,0,0,0-2.26.53,3.88,3.88,0,0,0-.52,2.49Zm48.64-77.82q0-5.67,3.41-8.57a12.47,12.47,0,0,1,16,.06q3.48,3,3.48,8.51v8.57h3.59a9.28,9.28,0,0,1,4.4.93,8.37,8.37,0,0,1,2.78,2.31,9.11,9.11,0,0,1,1.5,3.19,13.77,13.77,0,0,1,0,7.06,9.62,9.62,0,0,1-1.5,3.24,7.43,7.43,0,0,1-2.84,2.32,9.91,9.91,0,0,1-4.34.87h-3.59V61H313.61Z"/><path class="cls-1" d="M390,89.39a37.23,37.23,0,0,0,5.38-2.89,15.24,15.24,0,0,0,4.28-4.23,19.71,19.71,0,0,0,2.78-6.71,45.33,45.33,0,0,0,1-10.37V26.63a2.72,2.72,0,0,0-.52-2A3,3,0,0,0,401,24.2h-11.7V63.8q0,10-2.89,16.74a33.67,33.67,0,0,1-7.3,11A29.54,29.54,0,0,1,369.6,98a35.73,35.73,0,0,1-9.56,2.55,9.26,9.26,0,0,1-6.6-1.39,7.54,7.54,0,0,1-3.24-5,12.06,12.06,0,0,1,.52-6.77q1.21-3.08,5.5-4.92,2.08-.93,4.23-2a13.22,13.22,0,0,0,3.88-3.07,15,15,0,0,0,2.83-5.21,26.65,26.65,0,0,0,1.11-8.45V27a2.67,2.67,0,0,0-.53-2,2.91,2.91,0,0,0-1.91-.46h-6.71a9.82,9.82,0,0,1-4.17-.81,8,8,0,0,1-2.84-2.15,8.73,8.73,0,0,1-1.62-3.06,12,12,0,0,1-.52-3.48,12.81,12.81,0,0,1,.46-3.42A8.49,8.49,0,0,1,352,8.57a7.59,7.59,0,0,1,2.83-2.2,10.14,10.14,0,0,1,4.29-.81h50.49a37.29,37.29,0,0,1,7.93.69,9.42,9.42,0,0,1,4.69,2.32,8.5,8.5,0,0,1,2.2,4.34A34.37,34.37,0,0,1,425,19.8V65.31A56,56,0,0,1,422.52,83a39.09,39.09,0,0,1-6.66,12.56,32,32,0,0,1-9.5,8,37.06,37.06,0,0,1-11,3.94,10.52,10.52,0,0,1-6.71-.81,7.28,7.28,0,0,1-4.06-4.52,10.64,10.64,0,0,1,.18-7.52A9.79,9.79,0,0,1,390,89.39Zm44.23,20.5V12.62q0-5.67,3.42-8.57a12.64,12.64,0,0,1,16.09,0q3.42,2.9,3.42,8.57v97.27Z"/></svg>